# xmcd
# 
# Track frame offsets:
#     150
#     25538
#     42474
#     66235
#     80462
#     108083
#     126905
#     141134
#     162516
#     188217
#     208754
#     226660
#     244670
#     261866
#     279841
#     299972
#     320235
#     342305
# 
# Disc length: 4784
# 
# Revision: 32
# Processed by: cddbd v1.5.2PL0 Copyright (c) Steve Scherf et al.
# Submitted via: fre:ac v1.0.31
# 
DISCID=1212ae12
DTITLE=Various Artist - Celebration (Deluxe Edition) - CD 1
DYEAR=2009
DGENRE=Pop
TTITLE0=Madonna - Hung Up
TTITLE1=Madonna - Music
TTITLE2=Madonna - Vogue
TTITLE3=Madonna Featuring Justin Timberlake And Timbaland - 4 Minutes
TTITLE4=Madonna - Holiday
TTITLE5=Madonna - Everybody
TTITLE6=Madonna - Like A Virgin
TTITLE7=Madonna - Into The Groove
TTITLE8=Madonna - Like A Prayer
TTITLE9=Madonna - Ray Of Light
TTITLE10=Madonna - Sorry
TTITLE11=Madonna - Express Yourself
TTITLE12=Madonna - Open Your Heart
TTITLE13=Madonna - Borderline
TTITLE14=Madonna - Secret
TTITLE15=Madonna - Erotica
TTITLE16=Madonna - Justify My Love
TTITLE17=Madonna Featuring Lil Wayne - Revolver
EXTD=YEAR: 2009
EXTT0=
EXTT1=
EXTT2=
EXTT3=
EXTT4=
EXTT5=
EXTT6=
EXTT7=
EXTT8=
EXTT9=
EXTT10=
EXTT11=
EXTT12=
EXTT13=
EXTT14=
EXTT15=
EXTT16=
EXTT17=
PLAYORDER=
